<svg width="40" height="41" viewBox="0 0 40 41" fill="none" xmlns="http://www.w3.org/2000/svg">
<circle cx="20" cy="20.293" r="20" fill="white"/>
<path fill-rule="evenodd" clip-rule="evenodd" d="M40 20.293C40 31.3387 31.0457 40.293 20 40.293C8.9543 40.293 0 31.3387 0 20.293C0 9.24727 8.9543 0.292969 20 0.292969C31.0457 0.292969 40 9.24727 40 20.293ZM31.2437 12.781C30.2674 11.8047 28.6845 11.8047 27.7082 12.781L17.5 23.0074L13.0178 18.5252C12.0415 17.5489 10.4585 17.5489 9.48223 18.5252C8.50592 19.5015 8.50592 21.0844 9.48223 22.0607L15.7322 28.3107C16.7085 29.287 18.2915 29.287 19.2678 28.3107L31.2437 16.3165C32.22 15.3402 32.22 13.7573 31.2437 12.781Z" fill="#635BFF"/>
</svg>
